<svg width="576" height="512" viewBox="0 0 576 512" fill="none" xmlns="http://www.w3.org/2000/svg">
<g clip-path="url(#clip0_914_27)">
<path d="M41.3695 9.372C53.8695 -3.124 74.1295 -3.124 86.6295 9.372L168 90.74L221.1 37.66C249.2 9.539 294.8 9.539 322.9 37.66L474.299 189.1C502.5 217.2 502.5 262.8 474.299 290.9L283.9 481.4C246.4 518.9 185.6 518.9 148.1 481.4L30.6295 363.9C-6.86348 326.4 -6.86348 265.6 30.6295 228.1L122.7 135.1L41.3695 54.63C28.8795 42.13 28.8795 21.87 41.3695 9.372ZM217.4 230.6L168 181.3L75.8795 273.4C71.6895 277.6 68.8995 282.6 67.5195 288H386.7L429.1 245.7C432.2 242.5 432.2 237.5 429.1 234.3L277.7 82.91C274.5 79.79 269.499 79.79 266.299 82.91L213.3 136L262.6 185.4C275.1 197.9 275.1 218.1 262.6 230.6C250.1 243.1 229.9 243.1 217.4 230.6ZM448 448C448 422.8 480.6 368.4 499.2 339.3C505.3 329.9 518.699 329.9 524.799 339.3C543.399 368.4 576 422.8 576 448C576 483.3 547.3 512 512 512C476.7 512 448 483.3 448 448Z" fill="#848BA2"/>
</g>
<defs>
<clipPath id="clip0_914_27">
<rect width="576" height="512" fill="white"/>
</clipPath>
</defs>
</svg>
