<svg width="131" height="40" viewBox="0 0 131 40" fill="none" xmlns="http://www.w3.org/2000/svg">
<path d="M0 25C0 17.268 6.26801 11 14 11V40H5C2.23858 40 0 37.7614 0 35V25Z" fill="#003500"/>
<path d="M32 14C32 6.26801 25.732 0 18 0V40H27C29.7614 40 32 37.7614 32 35V14Z" fill="#F1582F"/>
<path d="M46.0396 32.356L49.4072 21.4922H52.2368L47.4683 35H45.585L46.0396 32.356ZM42.9316 21.4922L46.2808 32.356L46.7632 35H44.8613L40.1113 21.4922H42.9316ZM57.5435 35.1855C56.7827 35.1855 56.0993 35.0618 55.4932 34.8145C54.887 34.5671 54.3706 34.2238 53.9438 33.7847C53.5233 33.3394 53.1986 32.8229 52.9697 32.2354C52.7471 31.6416 52.6357 31.0046 52.6357 30.3242V29.9531C52.6357 29.18 52.7471 28.478 52.9697 27.8472C53.1924 27.2101 53.5078 26.6628 53.916 26.2051C54.3242 25.7474 54.8128 25.3949 55.3818 25.1475C55.9508 24.9001 56.5786 24.7764 57.2651 24.7764C57.9764 24.7764 58.6042 24.897 59.1484 25.1382C59.6927 25.3732 60.1473 25.7072 60.5122 26.1401C60.8771 26.5731 61.1523 27.0926 61.3379 27.6987C61.5234 28.2987 61.6162 28.9635 61.6162 29.6934V30.7231H53.749V29.0347H59.2041V28.8491C59.1917 28.4595 59.1175 28.1038 58.9814 27.7822C58.8454 27.4544 58.6351 27.1947 58.3506 27.0029C58.0661 26.805 57.6981 26.7061 57.2466 26.7061C56.8817 26.7061 56.5632 26.7865 56.291 26.9473C56.0251 27.1019 55.8024 27.3245 55.623 27.6152C55.4499 27.8997 55.32 28.2399 55.2334 28.6357C55.1468 29.0316 55.1035 29.4707 55.1035 29.9531V30.3242C55.1035 30.7448 55.1592 31.1344 55.2705 31.4932C55.388 31.8519 55.5581 32.1642 55.7808 32.4302C56.0096 32.6899 56.2817 32.894 56.5972 33.0425C56.9188 33.1847 57.2837 33.2559 57.6919 33.2559C58.2052 33.2559 58.6691 33.1569 59.0835 32.959C59.5041 32.7549 59.869 32.4549 60.1782 32.0591L61.4121 33.3394C61.2018 33.6486 60.9173 33.9455 60.5586 34.23C60.2061 34.5145 59.7793 34.7464 59.2783 34.9258C58.7773 35.099 58.1991 35.1855 57.5435 35.1855ZM65.7075 27.0122V35H63.2583V24.9619H65.5776L65.7075 27.0122ZM68.7598 24.897L68.7227 27.1792C68.5866 27.1545 68.432 27.1359 68.2588 27.1235C68.0918 27.1112 67.9341 27.105 67.7856 27.105C67.4084 27.105 67.0775 27.1576 66.793 27.2627C66.5085 27.3617 66.2703 27.507 66.0786 27.6987C65.8931 27.8905 65.7508 28.1255 65.6519 28.4038C65.5529 28.6759 65.4972 28.9852 65.4849 29.3315L64.9561 29.2666C64.9561 28.6296 65.021 28.0389 65.1509 27.4946C65.2808 26.9504 65.4694 26.4741 65.7168 26.0659C65.9642 25.6577 66.2734 25.3423 66.6445 25.1196C67.0218 24.8908 67.4548 24.7764 67.9434 24.7764C68.0794 24.7764 68.2248 24.7887 68.3794 24.8135C68.5402 24.832 68.667 24.8599 68.7598 24.897ZM75.3188 24.9619V26.7246H69.5669V24.9619H75.3188ZM71.1069 22.4941H73.5654V32.1055C73.5654 32.4023 73.6056 32.6312 73.686 32.792C73.7664 32.9528 73.887 33.061 74.0479 33.1167C74.2087 33.1724 74.4004 33.2002 74.623 33.2002C74.7839 33.2002 74.9323 33.1909 75.0684 33.1724C75.2044 33.1538 75.3188 33.1353 75.4116 33.1167L75.4209 34.9536C75.2168 35.0216 74.9849 35.0773 74.7251 35.1206C74.4715 35.1639 74.1839 35.1855 73.8623 35.1855C73.3118 35.1855 72.8294 35.0928 72.415 34.9072C72.0007 34.7155 71.679 34.4093 71.4502 33.9888C71.2214 33.562 71.1069 32.9992 71.1069 32.3003V22.4941ZM79.5493 24.9619V35H77.0908V24.9619H79.5493ZM76.9238 22.3364C76.9238 21.9715 77.0475 21.6685 77.2949 21.4272C77.5485 21.186 77.8887 21.0654 78.3154 21.0654C78.7422 21.0654 79.0793 21.186 79.3267 21.4272C79.5802 21.6685 79.707 21.9715 79.707 22.3364C79.707 22.6951 79.5802 22.9951 79.3267 23.2363C79.0793 23.4775 78.7422 23.5981 78.3154 23.5981C77.8887 23.5981 77.5485 23.4775 77.2949 23.2363C77.0475 22.9951 76.9238 22.6951 76.9238 22.3364ZM84.3364 20.7407V35H81.8872V20.7407H84.3364ZM90.6265 24.9619L86.2568 29.8696L83.8911 32.2725L83.1118 30.3706L84.9395 28.0698L87.667 24.9619H90.6265ZM88.1216 35L85.0137 30.3242L86.6465 28.7378L90.9604 35H88.1216ZM97.8999 32.6157V24.9619H100.368V35H98.0483L97.8999 32.6157ZM98.2153 30.5376L98.9761 30.519C98.9761 31.1932 98.9019 31.8148 98.7534 32.3838C98.605 32.9528 98.373 33.4476 98.0576 33.8682C97.7484 34.2826 97.3556 34.6073 96.8794 34.8423C96.4032 35.0711 95.8403 35.1855 95.1909 35.1855C94.6961 35.1855 94.2446 35.1175 93.8364 34.9814C93.4282 34.8392 93.0757 34.6196 92.7788 34.3228C92.4881 34.0197 92.2624 33.6331 92.1016 33.1631C91.9408 32.6868 91.8604 32.1147 91.8604 31.4468V24.9619H94.3096V31.4653C94.3096 31.7993 94.3467 32.0776 94.4209 32.3003C94.5013 32.5229 94.6095 32.7054 94.7456 32.8477C94.8879 32.9837 95.0518 33.0827 95.2373 33.1445C95.429 33.2002 95.6331 33.228 95.8496 33.228C96.4434 33.228 96.9103 33.1105 97.2505 32.8755C97.5968 32.6343 97.8442 32.3127 97.9927 31.9106C98.1411 31.5024 98.2153 31.0448 98.2153 30.5376ZM105.136 20.75V35H102.678V20.75H105.136ZM112.224 24.9619V26.7246H106.472V24.9619H112.224ZM108.012 22.4941H110.471V32.1055C110.471 32.4023 110.511 32.6312 110.591 32.792C110.672 32.9528 110.792 33.061 110.953 33.1167C111.114 33.1724 111.306 33.2002 111.528 33.2002C111.689 33.2002 111.838 33.1909 111.974 33.1724C112.11 33.1538 112.224 33.1353 112.317 33.1167L112.326 34.9536C112.122 35.0216 111.89 35.0773 111.63 35.1206C111.377 35.1639 111.089 35.1855 110.768 35.1855C110.217 35.1855 109.735 35.0928 109.32 34.9072C108.906 34.7155 108.584 34.4093 108.355 33.9888C108.127 33.562 108.012 32.9992 108.012 32.3003V22.4941ZM119.832 32.6157V24.9619H122.299V35H119.98L119.832 32.6157ZM120.147 30.5376L120.908 30.519C120.908 31.1932 120.833 31.8148 120.685 32.3838C120.537 32.9528 120.305 33.4476 119.989 33.8682C119.68 34.2826 119.287 34.6073 118.811 34.8423C118.335 35.0711 117.772 35.1855 117.123 35.1855C116.628 35.1855 116.176 35.1175 115.768 34.9814C115.36 34.8392 115.007 34.6196 114.71 34.3228C114.42 34.0197 114.194 33.6331 114.033 33.1631C113.872 32.6868 113.792 32.1147 113.792 31.4468V24.9619H116.241V31.4653C116.241 31.7993 116.278 32.0776 116.353 32.3003C116.433 32.5229 116.541 32.7054 116.677 32.8477C116.819 32.9837 116.983 33.0827 117.169 33.1445C117.361 33.2002 117.565 33.228 117.781 33.228C118.375 33.228 118.842 33.1105 119.182 32.8755C119.528 32.6343 119.776 32.3127 119.924 31.9106C120.073 31.5024 120.147 31.0448 120.147 30.5376ZM126.919 27.0122V35H124.47V24.9619H126.79L126.919 27.0122ZM129.972 24.897L129.935 27.1792C129.799 27.1545 129.644 27.1359 129.471 27.1235C129.304 27.1112 129.146 27.105 128.998 27.105C128.62 27.105 128.289 27.1576 128.005 27.2627C127.72 27.3617 127.482 27.507 127.291 27.6987C127.105 27.8905 126.963 28.1255 126.864 28.4038C126.765 28.6759 126.709 28.9852 126.697 29.3315L126.168 29.2666C126.168 28.6296 126.233 28.0389 126.363 27.4946C126.493 26.9504 126.681 26.4741 126.929 26.0659C127.176 25.6577 127.485 25.3423 127.856 25.1196C128.234 24.8908 128.667 24.7764 129.155 24.7764C129.291 24.7764 129.437 24.7887 129.591 24.8135C129.752 24.832 129.879 24.8599 129.972 24.897Z" fill="#003500"/>
</svg>
