<svg width="512" height="512" viewBox="0 0 512 512" fill="none" xmlns="http://www.w3.org/2000/svg">
<path d="M160 322.9V112C160 103.3 152.8 96 144 96C135.2 96 128 103.3 128 112V322.9C109.4 329.5 96 347.1 96 368C96 394.5 117.5 416 144 416C170.5 416 192 394.5 192 368C192 347.1 178.6 329.5 160 322.9ZM416 0C363.12 0 320 43.13 320 96C320 148.87 363.13 192 416 192C468.87 192 512 148.87 512 96C512 43.13 468.9 0 416 0ZM416 128C398.25 128 384 113.75 384 96C384 78.25 398.25 64 416 64C433.75 64 448 78.25 448 96C448 113.75 433.8 128 416 128ZM256 112C256 50.12 205.87 0 144 0C82.13 0 32 50.13 32 112V278.5C12.25 303.25 0 334 0 368C0 447.5 64.5 512 144 512C223.5 512 288 447.5 288 368C288 334.9 275.75 303.12 256 278.5V112ZM144 448C99.87 448 64 412.12 64 368C64 342.5 76.25 319.12 96 304.25V111.95C96 85.45 117.5 63.95 144 63.95C170.5 63.95 192 85.5 192 112V304.3C211.75 319.05 224 342.55 224 368.05C224 412.1 188.1 448 144 448Z" fill="#3547AC"/>
</svg>
